<svg width="22" height="15" viewBox="0 0 22 15" fill="none" xmlns="http://www.w3.org/2000/svg">
<path d="M20.7977 6.40866L14.6552 0.243668C14.4899 0.0852305 14.2691 -0.0022176 14.0402 4.27524e-05C13.8113 0.0023031 13.5923 0.0940923 13.4302 0.255762C13.2681 0.417432 13.1757 0.636135 13.1728 0.865056C13.17 1.09398 13.2568 1.31492 13.4148 1.4806L18.0316 6.11337H0.929685C0.810345 6.10605 0.69077 6.12324 0.578324 6.16388C0.465878 6.20451 0.36294 6.26773 0.275848 6.34964C0.188756 6.43155 0.119354 6.53043 0.0719135 6.64017C0.0244734 6.74991 0 6.8682 0 6.98775C0 7.10731 0.0244734 7.2256 0.0719135 7.33534C0.119354 7.44508 0.188756 7.54395 0.275848 7.62586C0.36294 7.70777 0.465878 7.77099 0.578324 7.81162C0.69077 7.85226 0.810345 7.86945 0.929685 7.86214H18.1005L13.4181 12.4916C13.329 12.5708 13.2571 12.6673 13.2066 12.7753C13.1561 12.8832 13.1282 13.0004 13.1245 13.1195C13.1208 13.2386 13.1415 13.3572 13.1853 13.4681C13.2291 13.5789 13.295 13.6797 13.379 13.7642C13.4631 13.8486 13.5635 13.9151 13.6741 13.9595C13.7848 14.0038 13.9033 14.0251 14.0224 14.0221C14.1416 14.0191 14.2588 13.9918 14.3671 13.9419C14.4753 13.892 14.5722 13.8205 14.6519 13.7318L20.7944 7.64887C20.8759 7.5675 20.9406 7.47084 20.9848 7.36444C21.0289 7.25803 21.0516 7.14396 21.0516 7.02876C21.0516 6.91356 21.0289 6.7995 20.9848 6.69309C20.9406 6.58668 20.8759 6.49003 20.7944 6.40866H20.7977Z" fill="#956469"/>
</svg>
