<svg width="36" height="37" viewBox="0 0 36 37" fill="none" xmlns="http://www.w3.org/2000/svg">
<path d="M18.1996 11.3445C20.6407 11.3445 20.9273 11.3554 21.8921 11.3989C22.7844 11.4388 23.2668 11.5876 23.5897 11.7145C24.0177 11.8814 24.3224 12.0772 24.6416 12.3964C24.9608 12.7156 25.1603 13.0203 25.3235 13.4483C25.4468 13.7712 25.5992 14.2536 25.6391 15.1459C25.6826 16.1107 25.6935 16.3973 25.6935 18.8384C25.6935 21.2796 25.6826 21.5661 25.6391 22.531C25.5992 23.4233 25.4504 23.9057 25.3235 24.2285C25.1566 24.6566 24.9608 24.9613 24.6416 25.2804C24.3224 25.5996 24.0177 25.7991 23.5897 25.9624C23.2668 26.0857 22.7844 26.238 21.8921 26.2779C20.9273 26.3215 20.6407 26.3324 18.1996 26.3324C15.7584 26.3324 15.4719 26.3215 14.507 26.2779C13.6147 26.238 13.1323 26.0893 12.8095 25.9624C12.3814 25.7955 12.0768 25.5996 11.7576 25.2804C11.4384 24.9613 11.2389 24.6566 11.0756 24.2285C10.9523 23.9057 10.8 23.4233 10.7601 22.531C10.7165 21.5661 10.7056 21.2796 10.7056 18.8384C10.7056 16.3973 10.7165 16.1107 10.7601 15.1459C10.8 14.2536 10.9487 13.7712 11.0756 13.4483C11.2425 13.0203 11.4384 12.7156 11.7576 12.3964C12.0768 12.0772 12.3814 11.8777 12.8095 11.7145C13.1323 11.5912 13.6147 11.4388 14.507 11.3989C15.4719 11.3518 15.7584 11.3445 18.1996 11.3445ZM18.1996 9.69775C15.7185 9.69775 15.4066 9.70864 14.4308 9.75216C13.4587 9.79569 12.7949 9.95166 12.2146 10.1766C11.6125 10.4087 11.1046 10.7243 10.5968 11.2321C10.089 11.7399 9.77707 12.2513 9.5413 12.8498C9.31641 13.4302 9.16044 14.094 9.11691 15.0697C9.07338 16.0418 9.0625 16.3538 9.0625 18.8348C9.0625 21.3159 9.07338 21.6278 9.11691 22.6035C9.16044 23.5756 9.31641 24.2394 9.5413 24.8234C9.77344 25.4255 10.089 25.9334 10.5968 26.4412C11.1046 26.949 11.6161 27.2609 12.2146 27.4967C12.7949 27.7216 13.4587 27.8776 14.4345 27.9211C15.4102 27.9646 15.7185 27.9755 18.2032 27.9755C20.6879 27.9755 20.9962 27.9646 21.9719 27.9211C22.944 27.8776 23.6078 27.7216 24.1918 27.4967C24.7939 27.2646 25.3017 26.949 25.8095 26.4412C26.3174 25.9334 26.6293 25.4219 26.8651 24.8234C27.09 24.2431 27.2459 23.5793 27.2895 22.6035C27.333 21.6278 27.3439 21.3195 27.3439 18.8348C27.3439 16.3501 27.333 16.0418 27.2895 15.0661C27.2459 14.094 27.09 13.4302 26.8651 12.8462C26.6329 12.2441 26.3174 11.7363 25.8095 11.2285C25.3017 10.7206 24.7903 10.4087 24.1918 10.1729C23.6114 9.94803 22.9476 9.79206 21.9719 9.74854C20.9925 9.70864 20.6806 9.69775 18.1996 9.69775Z" fill="#D6BF7C"/>
<path d="M18.1995 14.1406C15.6097 14.1406 13.5059 16.2408 13.5059 18.8343C13.5059 21.4278 15.6097 23.528 18.1995 23.528C20.7894 23.528 22.8932 21.4242 22.8932 18.8343C22.8932 16.2444 20.7894 14.1406 18.1995 14.1406ZM18.1995 21.8812C16.5165 21.8812 15.1526 20.5173 15.1526 18.8343C15.1526 17.1512 16.5165 15.7874 18.1995 15.7874C19.8826 15.7874 21.2464 17.1512 21.2464 18.8343C21.2464 20.5173 19.8826 21.8812 18.1995 21.8812Z" fill="#D6BF7C"/>
<path d="M23.0779 15.0512C23.6828 15.0512 24.1733 14.5608 24.1733 13.9558C24.1733 13.3508 23.6828 12.8604 23.0779 12.8604C22.4729 12.8604 21.9824 13.3508 21.9824 13.9558C21.9824 14.5608 22.4729 15.0512 23.0779 15.0512Z" fill="#D6BF7C"/>
</svg>
