<svg width="23" height="18" viewBox="0 0 23 18" fill="none" xmlns="http://www.w3.org/2000/svg">
<path fill-rule="evenodd" clip-rule="evenodd" d="M20.7 0H2.3C1.035 0 0 1.0125 0 2.25V15.75C0 16.9875 1.035 18 2.3 18H20.7C21.965 18 23 16.9875 23 15.75V2.25C23 1.0125 21.965 0 20.7 0ZM20.24 4.78125L12.719 9.3825C11.9715 9.84375 11.0285 9.84375 10.281 9.3825L2.76 4.78125C2.4725 4.60125 2.3 4.2975 2.3 3.97125C2.3 3.2175 3.1395 2.7675 3.795 3.16125L11.5 7.875L19.205 3.16125C19.8605 2.7675 20.7 3.2175 20.7 3.97125C20.7 4.2975 20.5275 4.60125 20.24 4.78125Z" fill="white"/>
</svg>
