<svg width="19" height="27" viewBox="0 0 19 27" fill="none" xmlns="http://www.w3.org/2000/svg">
<path fill-rule="evenodd" clip-rule="evenodd" d="M9.5 0C4.24786 0 0 4.34052 0 9.70724C0 15.49 5.99857 23.4638 8.46857 26.5008C9.01143 27.1664 10.0021 27.1664 10.545 26.5008C13.0014 23.4638 19 15.49 19 9.70724C19 4.34052 14.7521 0 9.5 0ZM9.5 13.1741C7.62714 13.1741 6.10714 11.621 6.10714 9.70724C6.10714 7.79353 7.62714 6.24037 9.5 6.24037C11.3729 6.24037 12.8929 7.79353 12.8929 9.70724C12.8929 11.621 11.3729 13.1741 9.5 13.1741Z" fill="white"/>
</svg>
