<svg width="36" height="37" viewBox="0 0 36 37" fill="none" xmlns="http://www.w3.org/2000/svg">
<path d="M13.7757 24.3605L14.429 24.7423C15.5309 25.3849 16.784 25.7222 18.0596 25.7196C19.4874 25.7196 20.8833 25.2962 22.0705 24.5029C23.2577 23.7096 24.1831 22.5821 24.7295 21.2629C25.2759 19.9437 25.4189 18.4921 25.1404 17.0916C24.8618 15.6912 24.1742 14.4048 23.1645 13.3951C22.1549 12.3855 20.8685 11.6979 19.468 11.4193C18.0676 11.1407 16.616 11.2837 15.2968 11.8301C13.9776 12.3766 12.85 13.3019 12.0568 14.4892C11.2635 15.6764 10.84 17.0722 10.84 18.5001C10.84 19.796 11.1803 21.0387 11.8183 22.1315L12.1991 22.7849L11.6098 24.9516L13.7757 24.3605ZM9.03878 27.5245L10.2589 23.0412C9.45493 21.663 9.03255 20.0956 9.03517 18.5001C9.03517 13.5159 13.0754 9.47571 18.0596 9.47571C23.0437 9.47571 27.084 13.5159 27.084 18.5001C27.084 23.4843 23.0437 27.5245 18.0596 27.5245C16.4647 27.5271 14.898 27.105 13.5203 26.3017L9.03878 27.5245ZM14.8027 14.2659C14.9236 14.2568 15.0454 14.2568 15.1663 14.2622C15.2151 14.2659 15.2638 14.2713 15.3125 14.2767C15.456 14.2929 15.6139 14.3805 15.6672 14.5014C15.9361 15.1114 16.1978 15.726 16.4505 16.3424C16.5065 16.4795 16.4731 16.6555 16.3666 16.827C16.2933 16.9429 16.2141 17.055 16.1292 17.1627C16.0273 17.2935 15.808 17.5336 15.808 17.5336C15.808 17.5336 15.7186 17.6401 15.7529 17.7727C15.7656 17.8233 15.8071 17.8964 15.845 17.9577L15.8982 18.0435C16.1292 18.4288 16.4397 18.8196 16.8187 19.1878C16.927 19.2924 17.0326 19.3998 17.1463 19.5C17.5686 19.8727 18.0469 20.1768 18.5631 20.4024L18.5676 20.4042C18.6443 20.4376 18.6831 20.4557 18.795 20.5035C18.851 20.527 18.9088 20.5477 18.9674 20.5631C19.028 20.5785 19.0919 20.5756 19.1508 20.5547C19.2098 20.5338 19.2612 20.4959 19.2986 20.4458C19.952 19.6543 20.0115 19.6029 20.017 19.6029V19.6047C20.0623 19.5623 20.1163 19.5302 20.1751 19.5104C20.2339 19.4907 20.2963 19.4837 20.3581 19.4901C20.4122 19.4937 20.4673 19.5036 20.5178 19.5262C20.997 19.7455 21.7812 20.0875 21.7812 20.0875L22.3064 20.323C22.3949 20.3654 22.4752 20.4656 22.4779 20.5622C22.4815 20.6226 22.4869 20.7201 22.4662 20.8988C22.4373 21.1325 22.3669 21.4132 22.2965 21.5603C22.2483 21.6607 22.1843 21.7527 22.107 21.8328C22.0159 21.9284 21.9162 22.0154 21.8092 22.0927C21.7722 22.1206 21.7346 22.1476 21.6964 22.1739C21.5841 22.2451 21.4688 22.3114 21.3508 22.3725C21.1184 22.4959 20.8618 22.5667 20.599 22.58C20.4321 22.5891 20.2651 22.6017 20.0973 22.5927C20.09 22.5927 19.5847 22.5141 19.5847 22.5141C18.3016 22.1767 17.1151 21.5444 16.1193 20.6678C15.9154 20.4882 15.7268 20.295 15.5336 20.1028C14.7305 19.3042 14.124 18.4423 13.7558 17.6283C13.5674 17.2288 13.4656 16.794 13.4571 16.3523C13.4534 15.8044 13.6325 15.2709 13.9661 14.8362C14.032 14.7514 14.0942 14.6629 14.2016 14.561C14.3162 14.4527 14.3884 14.3949 14.4669 14.3552C14.5713 14.3029 14.6852 14.2722 14.8018 14.265L14.8027 14.2659Z" fill="#D6BF7C"/>
</svg>
