<svg width="55" height="55" viewBox="0 0 55 55" fill="none" xmlns="http://www.w3.org/2000/svg">
<path d="M52.408 45.7326C52.408 43.4502 51.6959 41.2435 50.3896 39.415C50.483 39.2213 50.5484 39.0119 50.5484 38.7831C50.5484 38.1674 50.1785 37.6334 49.6079 37.4231C48.1633 36.8896 47.0255 35.7514 46.4927 34.3063C46.2819 33.7353 45.7478 33.3659 45.1327 33.3659C44.842 33.3659 44.5729 33.4538 44.3439 33.6008C43.0279 29.6992 42.5017 25.4424 42.7816 20.9181C43.4365 10.3526 35.8361 2.854 27.5064 2.854C19.022 2.854 11.5687 10.502 12.219 20.9186C12.5403 26.1108 11.8015 30.9519 10.023 35.3066L10.0088 35.3412L9.35108 35.6096C5.24777 37.2994 2.59668 41.2609 2.59668 45.7017V46.7186C2.59668 49.7112 5.03597 52.146 8.03365 52.146H46.97C49.9687 52.146 52.408 49.7112 52.408 46.7186V45.7326ZM47.6632 38.7821C46.7533 39.3257 45.748 40.2812 45.1303 41.3146C44.4719 40.2244 43.5983 39.3836 42.5985 38.7849C43.4491 38.2776 45.0335 36.8403 45.1596 36.2893C45.8108 37.3645 46.6649 38.1853 47.6632 38.7821ZM14.2905 20.7899C13.7113 11.4879 20.34 4.92948 27.5064 4.92948C34.6985 4.92948 41.2832 11.5154 40.7102 20.7899C40.4132 25.5921 40.976 30.121 42.3833 34.2831C41.5222 33.93 36.1658 31.733 36.4996 31.8699L35.935 31.451C34.6773 30.5146 33.7379 29.3376 33.216 28.0404C33.1852 27.9658 33.1719 27.8955 33.145 27.8216C35.7448 25.5105 37.3132 21.7479 37.3132 17.6068C37.3132 17.4771 37.306 17.3739 37.2828 17.0443C37.2666 16.5508 36.9038 16.1373 36.4173 16.0563C33.1916 15.5176 30.5983 13.3231 29.1167 9.87696C28.9556 9.50251 28.5897 9.25675 28.1823 9.24915C27.7841 9.27398 27.401 9.47362 27.2257 9.84149C25.9103 12.6112 23.3342 16.1024 18.5316 17.0063C18.03 17.1011 17.6712 17.5455 17.6854 18.0552C17.7964 22.0182 19.3593 25.6173 21.841 27.8343C21.813 27.9111 21.7884 27.9855 21.7563 28.0647C20.8018 30.422 18.8334 31.5623 18.4975 31.8718C18.3908 31.9154 12.2388 34.4317 12.6194 34.276C14.0251 30.116 14.5873 25.5896 14.2905 20.7899ZM25.9924 37.5163C24.3425 39.8953 22.4221 41.911 21.7461 41.911C21.7401 41.911 21.735 41.9105 21.7289 41.9105C20.5799 41.8497 18.118 38.4649 16.2827 35.0229L18.9549 33.9325C19.0591 33.9856 26.4531 37.751 25.9924 37.5163ZM26.5708 27.95C22.763 27.3239 20.1957 23.2223 19.8095 18.8462C23.2288 17.9569 26.115 15.7538 28.1337 12.5073C29.821 15.321 32.2775 17.2034 35.2337 17.9301C35.103 23.5062 31.3872 28.7127 26.5708 27.95ZM23.5814 29.0766C24.6862 29.6917 26.166 30.1052 27.4882 30.1052C28.8118 30.1052 30.3213 29.6866 31.4009 29.0786C31.9792 30.3942 32.8897 31.5999 34.0651 32.6104C33.6974 32.7978 27.0799 36.1704 27.5023 35.9551C27.3979 35.9019 20.4856 32.3806 20.9248 32.6044C22.0955 31.5977 23.004 30.3934 23.5814 29.0766ZM36.0478 33.933L38.7174 35.0257C36.8824 38.4668 34.4204 41.8497 33.2727 41.9105C33.2666 41.911 33.2606 41.911 33.2545 41.911C32.5664 41.911 30.6764 39.9263 29.0093 37.5169L36.0478 33.933ZM50.3325 46.7186C50.3325 48.5671 48.8246 50.0705 46.97 50.0705H8.03365C6.18011 50.0705 4.67215 48.5671 4.67215 46.7186V45.7017C4.67215 42.105 6.81856 38.8971 10.1385 37.53L14.3502 35.8114C15.6562 38.3071 18.9231 43.9854 21.7198 43.9854C23.6549 43.9854 26.0247 41.1023 27.5011 38.9905C28.6909 40.693 31.3063 44.1087 33.3822 43.9829C36.1182 43.8384 39.2583 38.4724 40.649 35.8162L42.258 36.4747C42.2461 36.485 42.235 36.4961 42.2229 36.5063C41.2447 37.3311 40.6826 37.3132 40.2638 37.6413C39.3718 38.3394 39.6044 39.7467 40.6534 40.1476C42.1515 40.7007 43.2586 41.8744 43.7707 43.2603C44.1547 44.3008 45.6025 44.5179 46.2785 43.6449C46.5562 43.2883 46.9166 41.6916 48.6482 40.6211C48.661 40.6132 48.6759 40.6088 48.6886 40.601C49.753 42.0825 50.3325 43.8766 50.3325 45.7326V46.7186Z" fill="black"/>
<path d="M3.51697 9.30844C4.84504 9.79924 5.89073 10.844 6.37885 12.1693C6.5866 12.7297 7.11054 13.092 7.71352 13.092C8.31751 13.092 8.84043 12.7292 9.04818 12.1678C9.53766 10.8402 10.5795 9.79741 11.908 9.30793C11.9091 9.30742 11.9091 9.30742 11.9091 9.30742C12.4695 9.10018 12.8323 8.57675 12.8323 7.97326C12.8323 7.36978 12.4695 6.84635 11.9091 6.6391C10.5827 6.1492 9.53771 5.10517 9.0492 3.77773C8.84145 3.2163 8.31853 2.854 7.71453 2.854C7.71352 2.854 7.7125 2.854 7.7125 2.854C7.10851 2.85502 6.58457 3.21833 6.37986 3.77773C5.90308 5.07128 4.87868 6.13702 3.51798 6.63961C2.95757 6.84584 2.59476 7.36927 2.59375 7.97326C2.59375 8.57675 2.95554 9.10119 3.51697 9.30844ZM7.71453 5.74831C8.26251 6.63184 8.99643 7.38628 9.93695 7.97225C9.03298 8.53216 8.27191 9.29324 7.7125 10.1967C7.14917 9.29046 6.39611 8.53748 5.48806 7.97428C6.39575 7.41131 7.15133 6.65637 7.71453 5.74831Z" fill="black"/>
<path d="M51.4833 6.6391C50.148 6.14666 49.1077 5.09463 48.6234 3.78026C48.4177 3.21833 47.8948 2.85502 47.2898 2.854C47.2898 2.854 47.2888 2.854 47.2877 2.854C46.6837 2.854 46.1608 3.2163 45.9531 3.77773C45.4649 5.10431 44.4202 6.14925 43.0932 6.6391C42.5318 6.84533 42.168 7.36876 42.168 7.97326C42.167 8.57726 42.5298 9.1017 43.0912 9.30844C44.4428 9.80794 45.4713 10.865 45.9521 12.1693C46.1598 12.7297 46.6837 13.092 47.2867 13.092C47.8907 13.092 48.4136 12.7292 48.6214 12.1683C49.1109 10.8402 50.1537 9.79792 51.4812 9.30793C52.0427 9.10119 52.4055 8.57726 52.4055 7.97377C52.4065 7.37028 52.0437 6.84635 51.4833 6.6391ZM47.2857 10.1972C46.7287 9.30209 45.9872 8.54793 45.0623 7.97428C45.965 7.41441 46.7189 6.66549 47.2877 5.74831C47.8387 6.63569 48.5802 7.39284 49.5102 7.97225C48.6072 8.53267 47.8461 9.29374 47.2857 10.1972Z" fill="black"/>
</svg>
