<svg width="55" height="55" viewBox="0 0 55 55" fill="none" xmlns="http://www.w3.org/2000/svg">
<path d="M28.2752 30.4869C28.0786 30.2635 27.7948 30.1353 27.4969 30.1348C27.1989 30.1348 26.9152 30.2625 26.7176 30.4854C26.4683 30.7681 26.1815 31.02 25.8643 31.2338C21.013 34.5142 18.1137 38.0206 17.91 40.8542C17.8755 41.3289 18.1684 41.7662 18.6214 41.9147C21.5674 42.881 24.5347 43.3644 27.5009 43.3644C30.4672 43.3644 33.4334 42.881 36.3784 41.9147C36.8314 41.7662 37.1243 41.3289 37.0898 40.8542C36.8861 38.0212 33.9868 34.5178 29.1356 31.2429C28.8153 31.0271 28.5265 30.7727 28.2752 30.4869ZM34.8613 40.2127C29.9726 41.6446 25.0292 41.6446 20.1385 40.2127C20.7901 38.1504 23.3277 35.4547 27.0266 32.9536C27.1878 32.8446 27.3438 32.7286 27.4948 32.6065C27.6489 32.7321 27.809 32.8512 27.9742 32.9627C31.6731 35.4597 34.2097 38.1519 34.8613 40.2127Z" fill="black"/>
<path d="M48.0734 3.63197C48.0734 3.05889 47.6093 2.59424 47.0357 2.59424H7.96352C7.38992 2.59424 6.92578 3.05889 6.92578 3.63197C6.92578 5.71175 8.16069 7.49675 9.92853 8.32851V24.4686C8.66569 24.9016 7.74969 26.0875 7.74969 27.4953C7.74969 28.9072 8.66569 30.0965 9.92853 30.5307V46.6713C8.16069 47.503 6.92578 49.288 6.92578 51.3678C6.92578 51.9409 7.38992 52.4056 7.96352 52.4056H47.0357C47.6093 52.4056 48.0734 51.9409 48.0734 51.3678C48.0734 49.2864 46.8367 47.4999 45.0666 46.6691V30.5303C46.3324 30.0958 47.2505 28.9068 47.2505 27.4953C47.2505 26.088 46.3324 24.9023 45.0666 24.469V8.33073C46.8367 7.49986 48.0734 5.7134 48.0734 3.63197ZM45.8206 4.66971C45.3919 5.88479 44.2316 6.75836 42.8716 6.75836C42.9772 6.75825 39.1612 6.75378 12.1276 6.75836C10.7676 6.75836 9.60727 5.88479 9.1786 4.66971H45.8206ZM39.1929 13.8107C39.1929 18.7349 33.6201 23.2466 30.3052 25.4933C29.6394 25.9372 29.2412 26.6866 29.2412 27.4984C29.2412 28.3172 29.6394 29.0707 30.3002 29.51C33.6252 31.7572 39.203 36.2624 39.203 41.1861C39.203 42.8826 38.9224 44.555 38.3673 46.166H16.6289C16.0799 44.5685 15.8023 42.8968 15.8023 41.1861C15.8023 36.2619 21.375 31.7502 24.6899 29.5034C25.3557 29.0595 25.754 28.3101 25.754 27.4984C25.754 26.6795 25.3557 25.9261 24.695 25.4868C21.374 23.2415 15.8023 18.7389 15.8023 13.8107C15.8023 12.1143 16.0836 10.4433 16.638 8.83383H38.3683C38.9155 10.4311 39.1929 12.1016 39.1929 13.8107ZM10.9622 26.3583C11.5936 26.3583 12.1074 26.8685 12.1074 27.4953C12.1074 28.1252 11.5965 28.6371 10.968 28.6404C10.9673 28.6404 10.9669 28.64 10.9663 28.64C10.9642 28.64 10.9625 28.6411 10.9605 28.6411C10.3341 28.6401 9.82516 28.1266 9.82516 27.4953C9.82516 26.8685 10.3349 26.3583 10.9622 26.3583ZM12.004 30.5289C13.267 30.093 14.1828 28.9051 14.1828 27.4953C14.1828 26.0896 13.267 24.905 12.004 24.4704V8.82135C12.0461 8.82236 12.0853 8.83383 12.1276 8.83383H14.4639C13.9784 10.4517 13.7268 12.1189 13.7268 13.8107C13.7268 19.4032 19.0594 24.182 23.5397 27.2106C23.6654 27.2942 23.6785 27.4396 23.6785 27.4984C23.6785 27.583 23.6542 27.6995 23.5326 27.7811C19.0594 30.8122 13.7268 35.5986 13.7268 41.1861C13.7268 42.8888 13.9752 44.557 14.4558 46.166H12.1276C12.0853 46.166 12.0461 46.1774 12.004 46.1784V30.5289ZM9.1786 50.3301C9.60727 49.115 10.7676 48.2414 12.1276 48.2414C12.2327 48.2414 44.9319 48.2423 42.8716 48.2414C44.2316 48.2414 45.3919 49.115 45.8206 50.3301H9.1786ZM44.0326 28.6407C44.0313 28.6407 44.0302 28.64 44.0289 28.64C44.0276 28.64 44.0265 28.6407 44.0252 28.6407C43.3997 28.6386 42.8918 28.1259 42.8918 27.4953C42.8918 26.8685 43.4016 26.3583 44.0289 26.3583C44.6613 26.3583 45.1751 26.8685 45.1751 27.4953C45.1751 28.1259 44.6632 28.6386 44.0326 28.6407ZM42.9912 24.4699C41.7304 24.904 40.8164 26.089 40.8164 27.4953C40.8164 28.9057 41.7304 30.094 42.9912 30.5294V46.1781C42.9504 46.1771 42.9126 46.166 42.8716 46.166H40.5408C41.0269 44.5466 41.2785 42.8782 41.2785 41.1861C41.2785 35.5981 35.9398 30.8173 31.4555 27.7862C31.3298 27.7026 31.3166 27.5572 31.3166 27.4984C31.3166 27.4138 31.341 27.2972 31.4626 27.2156C35.9358 24.1845 41.2684 19.3982 41.2684 13.8107C41.2684 12.1096 41.0204 10.4424 40.5407 8.83383H42.8716C42.9126 8.83383 42.9504 8.82268 42.9912 8.82173V24.4699Z" fill="black"/>
<path d="M25.8638 23.7554C26.183 23.9712 26.4729 24.2261 26.7252 24.5124C26.9218 24.7358 27.2046 24.8635 27.5025 24.864C27.7994 24.864 28.0842 24.7363 28.2808 24.5139C28.5321 24.2301 28.8189 23.9783 29.1341 23.765C31.2906 22.3077 33.0702 20.7987 34.4251 19.2796C34.6562 19.0207 34.7423 18.6629 34.6552 18.327C34.567 17.9911 34.3177 17.721 33.9894 17.608C29.6823 16.1233 25.3166 16.1243 21.0136 17.608C20.6853 17.721 20.436 17.9911 20.3478 18.327C20.2606 18.6635 20.3468 19.0212 20.5778 19.2801C21.9307 20.7947 23.7093 22.3006 25.8638 23.7554ZM31.7072 19.0942C30.6532 20.0873 29.3864 21.0896 27.9727 22.0452C27.8116 22.1542 27.6555 22.2697 27.5045 22.3923C27.3515 22.2666 27.1914 22.1476 27.0262 22.0361C25.5912 21.0673 24.3427 20.0822 23.2948 19.0942C26.0918 18.4 28.9081 18.4 31.7072 19.0942Z" fill="black"/>
</svg>
