<svg width="55" height="55" viewBox="0 0 55 55" fill="none" xmlns="http://www.w3.org/2000/svg">
<g clip-path="url(#clip0_49_631)">
<path d="M27.4978 9.77954C17.7267 9.77954 9.77734 17.7289 9.77734 27.5C9.77734 37.2711 17.7267 45.2205 27.4978 45.2205C37.2689 45.2205 45.2183 37.2711 45.2183 27.5C45.2183 17.7289 37.269 9.77954 27.4978 9.77954ZM27.4978 41.9986C19.5033 41.9986 12.9992 35.4945 12.9992 27.5C12.9992 19.5055 19.5033 13.0014 27.4978 13.0014C35.4923 13.0014 41.9964 19.5055 41.9964 27.5C41.9964 35.4945 35.4924 41.9986 27.4978 41.9986Z" fill="black"/>
<path d="M34.4135 21.528L25.8868 30.0545L20.5821 24.7499C19.9531 24.1208 18.933 24.1208 18.3039 24.7499C17.6747 25.379 17.6747 26.399 18.3039 27.0281L24.7477 33.4719C25.0622 33.7865 25.4745 33.9438 25.8867 33.9438C26.2989 33.9438 26.7113 33.7866 27.0258 33.4719L36.6915 23.8062C37.3206 23.1771 37.3206 22.1571 36.6915 21.528C36.0626 20.8989 35.0425 20.8989 34.4135 21.528Z" fill="black"/>
<path d="M52.6932 16.2053C52.6878 16.202 47.0667 12.8372 47.0667 12.8372L45.8049 7.61153C45.245 5.29273 43.1129 3.74289 40.7342 3.9274L34.3286 4.42314C34.3286 4.42314 30.6388 1.16666 30.6315 1.16053C28.8156 -0.386194 26.1795 -0.386194 24.3637 1.16053C24.3565 1.16666 20.6665 4.42314 20.6665 4.42314L14.261 3.9274C11.9014 3.74418 9.78554 5.26695 9.20453 7.55375L7.44795 13.1508C7.44795 13.1508 2.31363 16.2011 2.30686 16.2053C0.274597 17.4543 -0.540007 19.9613 0.370073 22.1664L2.56182 27.4777L0.370073 32.7889C-0.540007 34.9939 0.274597 37.5009 2.30697 38.7499C2.3132 38.7538 7.92339 42.0966 7.92339 42.0966L9.19046 47.3437C9.72014 49.5377 11.6574 51.0429 13.879 51.0427C14.2188 51.0427 13.8371 51.0555 20.6001 50.5372C20.6001 50.5372 24.3578 53.8348 24.3638 53.8398C25.2717 54.6132 26.3847 54.9999 27.4977 54.9999C28.6107 54.9999 29.7237 54.6132 30.6317 53.8398C30.6377 53.8346 34.3954 50.5372 34.3954 50.5372L40.7343 51.0278C43.1122 51.2116 45.2452 49.6625 45.805 47.3437L47.0668 42.1179C53.9452 38.0005 52.4868 38.8773 52.6933 38.7498C54.7255 37.5008 55.5401 34.9938 54.63 32.7888L52.4383 27.4775L54.63 22.1661C55.54 19.9613 54.7255 17.4544 52.6932 16.2053ZM49.2063 28.0922L51.6517 34.018C51.9541 34.7507 51.6853 35.5834 51.0127 36.0011L44.8321 39.7008C44.4611 39.9228 44.195 40.2846 44.0935 40.7049L42.673 46.5877C42.4864 47.3606 41.7768 47.8768 40.9828 47.8157L33.9672 47.2727C33.5351 47.2393 33.1065 47.3817 32.7804 47.668L28.5348 51.3937C27.9321 51.9009 27.0631 51.9009 26.4605 51.3935L22.2151 47.668C21.8888 47.3817 21.4601 47.239 21.0283 47.2727L14.0127 47.8157C13.2193 47.8769 12.509 47.3606 12.3225 46.5876L10.8963 40.6816C10.7946 40.2602 10.5273 39.8977 10.155 39.6758L3.98623 36.0001C3.31457 35.5821 3.04629 34.7501 3.34851 34.0179L5.79393 28.0921C5.95642 27.6985 5.95642 27.2566 5.79393 26.863L3.34818 20.9372C3.04618 20.2054 3.31414 19.3738 3.98505 18.9556L9.62337 15.606C9.96447 15.4034 10.2188 15.082 10.3376 14.7035C12.4155 8.07849 12.2982 8.46738 12.3223 8.3676C12.5088 7.59478 13.2172 7.07777 14.0125 7.13963L21.0974 7.688C21.5322 7.72151 21.9611 7.57781 22.2877 7.28966L26.462 3.60553C27.0637 3.10012 27.9311 3.10012 28.5329 3.60531L32.7074 7.28966C33.034 7.57802 33.464 7.72151 33.8977 7.688L40.9827 7.13963C41.7752 7.07841 42.4863 7.59467 42.6729 8.36771L44.0934 14.2505C44.1949 14.6707 44.461 15.0325 44.832 15.2546L51.0126 18.9542C51.6852 19.3719 51.9541 20.2045 51.6516 20.9372L49.2061 26.863C49.0438 27.2568 49.0438 27.6986 49.2063 28.0922Z" fill="black"/>
</g>
<defs>
<clipPath id="clip0_49_631">
<rect width="55" height="55" fill="white"/>
</clipPath>
</defs>
</svg>
