<svg width="10" height="15" viewBox="0 0 10 15" fill="none" xmlns="http://www.w3.org/2000/svg">
<path d="M4.92706 14.3437L0.819573 10.2512C0.714012 10.1411 0.655749 9.99403 0.657255 9.84149C0.658761 9.68896 0.719917 9.54307 0.827631 9.43506C0.935345 9.32705 1.08106 9.26551 1.23358 9.2636C1.3861 9.26169 1.53331 9.31956 1.64369 9.42484L4.73032 12.5008L4.73032 1.10647C4.72545 1.02696 4.7369 0.947294 4.76398 0.872375C4.79105 0.797457 4.83317 0.728873 4.88774 0.670847C4.94232 0.612821 5.00819 0.566581 5.08131 0.534974C5.15442 0.503366 5.23324 0.487061 5.31289 0.487061C5.39254 0.487061 5.47136 0.503366 5.54447 0.534974C5.61759 0.566581 5.68346 0.612821 5.73804 0.670847C5.79261 0.728873 5.83473 0.797457 5.8618 0.872375C5.88888 0.947294 5.90033 1.02696 5.89546 1.10647L5.89546 12.5467L8.9799 9.42703C9.03265 9.36768 9.09696 9.31972 9.16889 9.28608C9.24082 9.25244 9.31885 9.23383 9.39821 9.2314C9.47758 9.22896 9.55661 9.24274 9.63046 9.27191C9.70432 9.30107 9.77145 9.34499 9.82774 9.40099C9.88404 9.45699 9.92832 9.5239 9.95786 9.5976C9.98742 9.6713 10.0016 9.75027 9.9996 9.82965C9.99758 9.90903 9.97939 9.98717 9.94614 10.0593C9.91289 10.1314 9.86527 10.196 9.80621 10.249L5.75337 14.3415C5.69915 14.3959 5.63476 14.439 5.56386 14.4684C5.49297 14.4978 5.41697 14.5129 5.34022 14.5129C5.26346 14.5129 5.18746 14.4978 5.11657 14.4684C5.04567 14.439 4.98128 14.3959 4.92706 14.3415V14.3437Z" fill="white"/>
</svg>
