<svg width="36" height="35" viewBox="0 0 36 35" fill="none" xmlns="http://www.w3.org/2000/svg">
<path fill-rule="evenodd" clip-rule="evenodd" d="M23.5191 10.5476C23.717 10.4643 23.9336 10.4356 24.1464 10.4644C24.3592 10.4933 24.5603 10.5786 24.7289 10.7115C24.8975 10.8445 25.0274 11.0202 25.1051 11.2204C25.1827 11.4206 25.2053 11.6379 25.1704 11.8498L23.3542 22.8667C23.178 23.9294 22.012 24.5388 21.0374 24.0094C20.2222 23.5666 19.0113 22.8843 17.9222 22.1724C17.3776 21.816 15.7095 20.6748 15.9145 19.8628C16.0907 19.1685 18.8936 16.5594 20.4952 15.0082C21.1239 14.3988 20.8372 14.0472 20.0948 14.6078C18.2513 15.9996 15.2915 18.1162 14.3129 18.712C13.4496 19.2373 12.9995 19.327 12.4614 19.2373C11.4796 19.074 10.569 18.8209 9.82588 18.5126C8.82165 18.0962 8.8705 16.7156 9.82508 16.3135L23.5191 10.5476Z" fill="#D6BF7C"/>
</svg>
